# xmcd
#
# Track frame offsets:
# 150
# 46642
# 92733
# 140275
#
# Disc length: 2548 seconds
#
# Revision: 0
# Processed by: cddbd v1.5.1PL2 Copyright (c) Steve Scherf et al.
# Submitted via: Audion 3.0.2 (http://www.panic.com/audion/)
#
DISCID=2709f204
DTITLE=yoo - 3
DYEAR=1900
DGENRE=
TTITLE0=1
TTITLE1=2
TTITLE2=3
TTITLE3=4
EXTD=
EXTT0=
EXTT1=
EXTT2=
EXTT3=
PLAYORDER=
